# xmcd CD database file
#
# Track frame offsets:
#	150
#	17738
#	36520
#	62916
#	80139
#	103321
#	120090
#	140140
#	157609
#
# Disc length: 2330 seconds
#
# Revision: 3
# Processed by: cddbd v1.5.1PL2 Copyright (c) Steve Scherf et al.
# Submitted via: CDex 1.51
#
DISCID=76091809
DTITLE=indigo jam unit - DEMONSTRATION
DYEAR=2005
DGENRE=Acid Jazz
TTITLE0=GIANT SWING
TTITLE1=SCENE-CARTAINCALL
TTITLE2=KA I KA
TTITLE3=PALETTE
TTITLE4=SNOW
TTITLE5=BACK SHOT
TTITLE6=7th FEELING
TTITLE7=TEARDROP
TTITLE8=THE EMPTY SCREEN
EXTD=YEAR: 2005
EXTT0=
EXTT1=
EXTT2=
EXTT3=
EXTT4=
EXTT5=
EXTT6=
EXTT7=
EXTT8=
PLAYORDER=
